<?xml version="1.0" ?><svg id="Layer_1" style="enable-background:new 0 0 64 64;" version="1.1" viewBox="0 0 64 64" xml:space="preserve" xmlns="http://www.w3.org/2000/svg" xmlns:xlink="http://www.w3.org/1999/xlink"><style type="text/css">
	.st0{fill:#1379C2;}
	.st1{fill:#358DCC;}
	.st2{fill-rule:evenodd;clip-rule:evenodd;fill:#3FB754;}
	.st3{fill-rule:evenodd;clip-rule:evenodd;fill:#CCCCCC;}
	.st4{fill:#5D5E61;}
	.st5{fill:#924F34;}
	.st6{fill:#E6E6E6;}
	.st7{fill:#0F8C7E;}
	.st8{fill-rule:evenodd;clip-rule:evenodd;fill:#E6E6E6;}
	.st9{fill-rule:evenodd;clip-rule:evenodd;fill:#E6E6E6;stroke:#000000;stroke-width:0.4799;stroke-miterlimit:2.6131;}
	.st10{fill:#823B1F;}
	.st11{fill:#FFC810;}
	.st12{fill-rule:evenodd;clip-rule:evenodd;fill:#924F34;}
	.st13{fill:#E04538;}
	.st14{fill-rule:evenodd;clip-rule:evenodd;}
	.st15{fill-rule:evenodd;clip-rule:evenodd;fill:#FFC810;}
	.st16{fill-rule:evenodd;clip-rule:evenodd;fill:#E4E7E9;}
	.st17{fill:#3FB754;}
	.st18{fill-rule:evenodd;clip-rule:evenodd;fill:#5D5E61;}
	.st19{fill:#C92B1C;}
	.st20{fill:#666666;}
	.st21{fill:#FFD95E;}
	.st22{fill:#4D4D4D;}
	.st23{fill-rule:evenodd;clip-rule:evenodd;fill:#0F8C7E;}
	.st24{fill:#999999;}
	.st25{fill:#CCCCCC;}
	.st26{fill-rule:evenodd;clip-rule:evenodd;fill:#358DCC;}
	.st27{fill-rule:evenodd;clip-rule:evenodd;fill:#823B1F;}
</style><g><path class="st25" d="M25.5,18.4l4.5,0v-5.9l6.8-7.8c0.8-0.9,0.7-2.4-0.2-3.2c-0.9-0.8-2.4-0.7-3.2,0.2l-7.3,8.4   c-0.4,0.4-0.6,0.9-0.6,1.5V18.4L25.5,18.4z"/><path d="M26.5,17.4l2.6,0v-4.9l0.2-0.6l6.8-7.8c0.5-0.5,0.4-1.4-0.1-1.8c-0.5-0.5-1.4-0.4-1.8,0.1l0,0l-7.3,8.4l0,0   c-0.2,0.2-0.3,0.5-0.3,0.9V17.4L26.5,17.4z M30,19.4l-4.5,0h-1v-1v-6.7c0-0.8,0.3-1.6,0.8-2.2l0,0l7.3-8.4c1.2-1.3,3.2-1.5,4.5-0.3   l0,0C38.6,2,38.7,4,37.6,5.3L31,12.9v5.5v1L30,19.4L30,19.4z"/><path class="st0" d="M12.9,19.9l14.9,14.9c5-5,10-9.9,14.9-14.9C32.8,19.9,22.8,19.9,12.9,19.9L12.9,19.9z M30,38.9v19.6l3,0   c1.2,0,2.2,1,2.2,2.2c0,1.2-1,2.2-2.2,2.2c-3.5,0-7,0-10.5,0c-1.2,0-2.2-1-2.2-2.2c0-1.2,1-2.2,2.2-2.2l3,0V38.9L5.8,19.3l0,0   c-0.4-0.4-0.7-1-0.7-1.6c0-1.2,1-2.2,2.2-2.2h4.7h13.4h22.6c2,0,3,2.4,1.6,3.8C43.1,25.8,36.6,32.4,30,38.9L30,38.9z"/><path class="st11" d="M37.7,15.4h4.7c1.7,0,6.3-0.5,7.4,0.7c0.9,0.9,0.9,2.3,0,3.2l-4.1,4.1l-3.3,3.3l-1.9,1.9h0l1.9-1.9   c1.7,1.1,3.7,1.7,5.8,1.7c5.9,0,10.7-4.8,10.7-10.7C58.8,11.8,54,7,48.1,7C43.1,7,38.7,10.5,37.7,15.4L37.7,15.4z"/><path d="M38.9,14.5c2.7,0,10-0.5,11.5,0.9c0.6,0.6,0.9,1.4,0.9,2.3v0c0,0.8-0.3,1.6-0.9,2.3l-6.5,6.5c1.3,0.6,2.8,1,4.2,1   c5.4,0,9.7-4.4,9.7-9.7c0-5.4-4.4-9.7-9.7-9.7C44,7.9,40.3,10.6,38.9,14.5L38.9,14.5z M37.7,16.4h-1.2l0.3-1.2   C37.9,9.9,42.6,6,48.1,6c6.4,0,11.7,5.2,11.7,11.7c0,6.4-5.2,11.7-11.7,11.7c-2,0-3.9-0.5-5.7-1.5l-1.4,1.4l-0.7,0.3h0l-0.7-1.7   c3.1-3.1,6.2-6.2,9.3-9.3c0.2-0.2,0.4-0.6,0.4-0.9v0c0-0.3-0.1-0.7-0.4-0.9C48.3,16,39.3,16.4,37.7,16.4L37.7,16.4z"/><polygon class="st15" points="42.7,19.9 12.9,19.9 27.8,34.8 42.7,19.9  "/><path d="M15.2,20.9l12.6,12.6l12.6-12.6L15.2,20.9L15.2,20.9z M27.1,35.5L10.5,18.9l34.6,0L28.5,35.5l-0.7,0.7L27.1,35.5L27.1,35.5   z M31,39.3v18.3l2,0v0c1.8,0,3.2,1.4,3.2,3.2c0,1.8-1.4,3.2-3.2,3.2v0l-10.5,0v0c-1.8,0-3.2-1.4-3.2-3.2s1.4-3.2,3.2-3.2v0l2,0   V39.3L5.2,19.9c-2-2-0.6-5.5,2.3-5.5h40.7l0,0c2.9,0.1,4.3,3.5,2.3,5.5L37.7,32.6L31,39.3L31,39.3z M29,38.9v-0.4l0.3-0.3l7-7   L49,18.6c0.8-0.8,0.2-2.1-0.9-2.2v0H7.4c-1.1,0-1.7,1.4-0.9,2.2c6.5,6.5,13.1,13.1,19.7,19.7l0.3,0.3v0.4v20.6l-4,0v0   c-0.7,0-1.3,0.6-1.3,1.3c0,0.7,0.6,1.3,1.3,1.3v0l10.5,0v0c0.7,0,1.3-0.6,1.3-1.3c0-0.7-0.6-1.3-1.3-1.3v0l-4,0V38.9L29,38.9z"/></g></svg>