<?xml version="1.0" ?><svg height="64" id="svg2447" version="1.1" viewBox="0 0 16.933333 16.933334" width="64" xmlns="http://www.w3.org/2000/svg" xmlns:cc="http://creativecommons.org/ns#" xmlns:dc="http://purl.org/dc/elements/1.1/" xmlns:inkscape="http://www.inkscape.org/namespaces/inkscape" xmlns:rdf="http://www.w3.org/1999/02/22-rdf-syntax-ns#" xmlns:sodipodi="http://sodipodi.sourceforge.net/DTD/sodipodi-0.dtd" xmlns:svg="http://www.w3.org/2000/svg"><defs id="defs2441"/><g id="layer1" transform="translate(0,-280.06665)"><path d="m 3.6752162,286.50501 c 1.281398,0.59761 2.5630511,1.19524 3.844729,1.79369 l -0.316261,1.02164 c -0.2269548,0.73295 -0.5036269,1.34784 -0.9100219,1.68776 -0.4063971,0.33991 -0.954169,0.46699 -1.9120271,0.16949 -0.824905,-0.25619 -1.194874,-0.66652 -1.3513409,-1.19527 -0.156464,-0.52875 -0.07373,-1.21093 0.156065,-1.93735 z" id="path2275-2" style="color:#000000;font-style:normal;font-variant:normal;font-weight:normal;font-stretch:normal;font-size:medium;line-height:normal;font-family:sans-serif;font-variant-ligatures:normal;font-variant-position:normal;font-variant-caps:normal;font-variant-numeric:normal;font-variant-alternates:normal;font-feature-settings:normal;text-indent:0;text-align:start;text-decoration:none;text-decoration-line:none;text-decoration-style:solid;text-decoration-color:#000000;letter-spacing:normal;word-spacing:normal;text-transform:none;writing-mode:lr-tb;direction:ltr;text-orientation:mixed;dominant-baseline:auto;baseline-shift:baseline;text-anchor:start;white-space:normal;shape-padding:0;clip-rule:nonzero;display:inline;overflow:visible;visibility:visible;opacity:1;isolation:auto;mix-blend-mode:normal;color-interpolation:sRGB;color-interpolation-filters:linearRGB;solid-color:#000000;solid-opacity:1;vector-effect:none;fill:#b3e5fc;fill-opacity:1;fill-rule:nonzero;stroke:none;stroke-width:0.5291667;stroke-linecap:round;stroke-linejoin:round;stroke-miterlimit:4;stroke-dasharray:none;stroke-dashoffset:0;stroke-opacity:1;paint-order:stroke fill markers;color-rendering:auto;image-rendering:auto;shape-rendering:auto;text-rendering:auto;enable-background:accumulate"/><path d="m 13.337159,286.51173 0.501261,1.58026 c 0.229791,0.72643 0.313047,1.4086 0.156581,1.93735 -0.156467,0.52875 -0.526952,0.93908 -1.351854,1.19528 -0.957858,0.29749 -1.505633,0.16991 -1.91203,-0.17002 -0.406395,-0.33992 -0.683065,-0.95427 -0.9100214,-1.68723 l -0.328662,-1.06195 c 1.2818074,-0.59828 2.5634144,-1.19589 3.8447254,-1.79369 z" id="path2273-9" style="color:#000000;font-style:normal;font-variant:normal;font-weight:normal;font-stretch:normal;font-size:medium;line-height:normal;font-family:sans-serif;font-variant-ligatures:normal;font-variant-position:normal;font-variant-caps:normal;font-variant-numeric:normal;font-variant-alternates:normal;font-feature-settings:normal;text-indent:0;text-align:start;text-decoration:none;text-decoration-line:none;text-decoration-style:solid;text-decoration-color:#000000;letter-spacing:normal;word-spacing:normal;text-transform:none;writing-mode:lr-tb;direction:ltr;text-orientation:mixed;dominant-baseline:auto;baseline-shift:baseline;text-anchor:start;white-space:normal;shape-padding:0;clip-rule:nonzero;display:inline;overflow:visible;visibility:visible;opacity:1;isolation:auto;mix-blend-mode:normal;color-interpolation:sRGB;color-interpolation-filters:linearRGB;solid-color:#000000;solid-opacity:1;vector-effect:none;fill:#b3e5fc;fill-opacity:1;fill-rule:nonzero;stroke:none;stroke-width:0.5291667;stroke-linecap:round;stroke-linejoin:round;stroke-miterlimit:4;stroke-dasharray:none;stroke-dashoffset:0;stroke-opacity:1;paint-order:stroke fill markers;color-rendering:auto;image-rendering:auto;shape-rendering:auto;text-rendering:auto;enable-background:accumulate"/><path d="m 8.8423456,281.25621 c -0.06305,-5.3e-4 -0.12192,0.009 -0.173633,0.0212 -0.118256,0.0282 -0.14006,0.0555 -0.203089,0.092 -0.06242,-0.0359 -0.08213,-0.0626 -0.197403,-0.0899 -0.102513,-0.0243 -0.231923,-0.0373 -0.368969,0.0176 -0.137047,0.0549 -0.2550692,0.18459 -0.3126425,0.34158 -0.069781,0.19028 -0.02781,0.38287 0.042892,0.53124 0.070699,0.14837 0.1716485,0.2711 0.2718165,0.37723 0.200338,0.21227 0.413928,0.35915 0.413928,0.35915 l 0.150378,0.10387 0.150379,-0.1018 c 0,0 0.215789,-0.14601 0.418063,-0.3576 0.10114,-0.1058 0.201652,-0.23016 0.273367,-0.37879 0.07171,-0.14863 0.116904,-0.34006 0.04858,-0.53123 -0.05678,-0.15886 -0.175953,-0.29027 -0.314192,-0.34572 -0.06912,-0.0277 -0.136417,-0.0382 -0.199472,-0.0388 z m 0.0021,0.52917 c -0.0042,-0.002 -0.0066,-0.0188 0.01188,0.0331 0.007,0.0196 0.0088,0.0545 -0.02532,0.12506 -0.03406,0.0706 -0.10227,0.15915 -0.179832,0.24029 -0.08516,0.0891 -0.117581,0.10453 -0.183452,0.15607 -0.06535,-0.052 -0.09793,-0.0671 -0.181901,-0.15607 -0.07692,-0.0815 -0.144248,-0.17202 -0.177768,-0.24236 -0.03352,-0.0703 -0.0318,-0.10326 -0.02532,-0.12092 0.01868,-0.0509 0.01818,-0.0332 0.01394,-0.0315 -0.0042,0.002 0.01418,-0.005 0.05064,0.004 0.0729,0.0173 0.165881,0.0765 0.165881,0.0765 l 0.152444,0.10903 0.154515,-0.10903 c 0,0 0.09633,-0.0607 0.171566,-0.0786 0.03762,-0.009 0.05693,-0.004 0.05271,-0.006 z m -2.9161002,1.40043 c -0.063053,-5.3e-4 -0.1219226,0.009 -0.1736328,0.0212 -0.1180121,0.0282 -0.1400413,0.0555 -0.2030889,0.092 -0.062428,-0.0359 -0.082367,-0.0626 -0.197403,-0.0899 -0.1025128,-0.0243 -0.2319231,-0.0353 -0.3689694,0.0196 -0.1370488,0.0549 -0.2550689,0.1846 -0.3126422,0.34158 -0.069781,0.19028 -0.02781,0.38132 0.042892,0.52969 0.070699,0.14836 0.1716484,0.27059 0.271817,0.37672 0.2003373,0.21227 0.4159965,0.35915 0.4159965,0.35915 l 0.1483095,0.10387 0.1503786,-0.1018 c 0,0 0.2157862,-0.1455 0.4180628,-0.35709 0.101137,-0.1058 0.2016522,-0.22861 0.2733676,-0.37724 0.071721,-0.14863 0.1169035,-0.34006 0.048578,-0.53123 -0.056782,-0.15886 -0.1759533,-0.29233 -0.3141928,-0.34778 -0.06912,-0.0278 -0.1364191,-0.0382 -0.199472,-0.0388 z m 5.8203176,0 c -0.06306,-5.3e-4 -0.121923,0.009 -0.173633,0.0212 -0.117608,0.0281 -0.137949,0.0555 -0.201023,0.092 -0.0624,-0.0359 -0.08184,-0.0625 -0.197403,-0.0899 -0.102513,-0.0243 -0.233989,-0.0353 -0.371038,0.0196 -0.137046,0.0549 -0.255069,0.1846 -0.312642,0.34158 -0.06978,0.19028 -0.02574,0.38132 0.04496,0.52969 0.0707,0.14836 0.169584,0.27059 0.269753,0.37672 0.200334,0.21227 0.415994,0.35915 0.415994,0.35915 l 0.148312,0.10387 0.150378,-0.1018 c 0,0 0.215787,-0.1455 0.418063,-0.35709 0.101137,-0.1058 0.203719,-0.22861 0.275434,-0.37724 0.07172,-0.14863 0.114832,-0.34006 0.04651,-0.53123 -0.05678,-0.15886 -0.175951,-0.29233 -0.314193,-0.34778 -0.06912,-0.0278 -0.136417,-0.0382 -0.199469,-0.0388 z m -5.8182512,0.53124 c -0.00421,-0.002 -0.0046,-0.0188 0.013944,0.0331 0.00701,0.0196 0.00664,0.0524 -0.02739,0.12299 -0.03406,0.0706 -0.1022694,0.16122 -0.1798347,0.24236 -0.08545,0.0894 -0.1175358,0.10453 -0.1834515,0.15606 -0.065378,-0.052 -0.097729,-0.0689 -0.181901,-0.15813 -0.07692,-0.0815 -0.1442482,-0.17202 -0.1777656,-0.24236 -0.03352,-0.0703 -0.031803,-0.1012 -0.025321,-0.11885 0.01868,-0.0509 0.018177,-0.0353 0.013944,-0.0336 -0.00421,0.002 0.014182,-0.003 0.050644,0.006 0.072898,0.0173 0.1658805,0.0765 0.1658805,0.0765 l 0.1545114,0.10697 0.1524476,-0.10697 c 0,0 0.096329,-0.0607 0.1715638,-0.0786 0.037621,-0.009 0.05693,-0.004 0.05271,-0.006 z m 5.8203172,0 c -0.0042,-0.002 -0.0046,-0.0188 0.01394,0.0331 0.007,0.0196 0.0083,0.0524 -0.02582,0.12299 -0.03406,0.0706 -0.101753,0.16122 -0.179319,0.24236 -0.08561,0.0896 -0.118028,0.1066 -0.183967,0.15813 -0.06553,-0.052 -0.09832,-0.07 -0.183451,-0.1602 -0.07692,-0.0815 -0.144249,-0.17202 -0.177766,-0.24236 -0.03352,-0.0703 -0.03181,-0.1012 -0.02532,-0.11885 0.01868,-0.0509 0.01818,-0.0353 0.01394,-0.0336 -0.0042,0.002 0.01418,-0.003 0.05064,0.006 0.0729,0.0173 0.16795,0.0765 0.16795,0.0765 l 0.152445,0.10697 0.151929,-0.10697 c 0,0 0.09685,-0.0607 0.172082,-0.0786 0.03762,-0.009 0.05693,-0.004 0.05271,-0.006 z m -2.9083504,0.18448 c -0.06305,-10e-4 -0.12192,0.008 -0.173632,0.0207 -0.118013,0.0282 -0.140042,0.055 -0.203089,0.0915 -0.06243,-0.0359 -0.08237,-0.0626 -0.197403,-0.0899 -0.102513,-0.0243 -0.231924,-0.0353 -0.36897,0.0196 -0.137046,0.0549 -0.2550686,0.18512 -0.312642,0.3421 -0.069781,0.19028 -0.02781,0.3808 0.042892,0.52917 0.070699,0.14837 0.171648,0.27265 0.271817,0.37879 0.200337,0.21226 0.413927,0.35915 0.413927,0.35915 l 0.150379,0.1018 0.150379,-0.1018 c 0,0 0.215788,-0.14549 0.418062,-0.35708 0.10114,-0.10581 0.201653,-0.22861 0.273368,-0.37724 0.07171,-0.14864 0.116903,-0.34008 0.04858,-0.53124 -0.05678,-0.15887 -0.175953,-0.29025 -0.314193,-0.34571 -0.06912,-0.0277 -0.136416,-0.0388 -0.199472,-0.0398 z m 0.0021,0.5302 c -0.0042,-0.002 -0.0066,-0.0188 0.01188,0.0331 0.007,0.0196 0.0088,0.0523 -0.02532,0.12299 -0.03406,0.0706 -0.102269,0.16123 -0.179832,0.24237 -0.08516,0.0891 -0.11758,0.10453 -0.183451,0.15606 -0.06535,-0.052 -0.09793,-0.0671 -0.181901,-0.15606 -0.07692,-0.0815 -0.144248,-0.17204 -0.177768,-0.24237 -0.03352,-0.0703 -0.0318,-0.10326 -0.02532,-0.12092 0.01868,-0.0509 0.01818,-0.0348 0.01394,-0.0331 -0.0042,0.002 0.01418,-0.003 0.05064,0.006 0.0729,0.0173 0.16588,0.0765 0.16588,0.0765 l 0.152445,0.10749 0.154514,-0.10749 c 0,0 0.09633,-0.0601 0.171567,-0.078 0.03762,-0.009 0.05693,-0.004 0.05271,-0.006 z m -5.0250139,0.48731 a 0.26460982,0.26460982 0 0 0 -0.02739,10e-4 0.26460982,0.26460982 0 0 0 -0.226859,0.18345 l -0.5575882,1.75906 0.4066937,0.46509 0.2609638,-0.82269 c 1.2814009,0.59761 2.5630479,1.19525 3.8447292,1.79369 l -0.3162617,1.02164 c -0.2269543,0.73295 -0.5036265,1.34784 -0.9100212,1.68776 -0.4063973,0.33992 -0.9541695,0.467 -1.9120273,0.1695 -0.8249047,-0.2562 -1.1948716,-0.66653 -1.3513409,-1.19528 -0.156464,-0.52875 -0.073726,-1.21093 0.1560645,-1.93735 l 0.040307,-0.12661 -0.4066937,-0.46457 -0.137459,0.43305 c -0.2465044,0.77926 -0.3644133,1.55574 -0.1601973,2.24586 0.1852746,0.6261 0.6598762,1.14865 1.4515916,1.45986 -0.3186642,1.01544 -0.6373734,2.03062 -0.9565296,3.04632 -0.4264397,-0.13387 -0.8797424,-0.27628 -1.2624569,-0.39636 a 0.26460982,0.26460982 0 0 0 -0.078547,-0.0139 0.26460982,0.26460982 0 0 0 -0.0801,0.51935 c 0.437806,0.13736 0.9530027,0.29945 1.4443579,0.45372 a 0.26460982,0.26460982 0 0 0 0.1415918,0.0444 c 0.4930113,0.15479 0.9624245,0.30205 1.4433232,0.4532 a 0.2651008,0.2651008 0 1 0 0.1586468,-0.50591 c -0.4206901,-0.13223 -0.8296936,-0.26046 -1.2624541,-0.39636 0.3189817,-1.01538 0.6375215,-2.03122 0.9560137,-3.04632 0.9350269,0.23266 1.6520028,0.0851 2.1559415,-0.33642 0.5491347,-0.45932 0.8375729,-1.17268 1.0743511,-1.93735 l 0.796851,-2.57659 0.812353,2.6231 c 0.236778,0.76468 0.525219,1.47804 1.0743544,1.93735 0.5042,0.42173 1.219938,0.5696 2.155425,0.33641 0.318738,1.01569 0.637299,2.0309 0.95653,3.04685 -0.432739,0.13588 -0.841785,0.26413 -1.262457,0.39635 a 0.26502852,0.26502852 0 1 0 0.158131,0.50592 c 0.476589,-0.1498 0.941657,-0.29561 1.430404,-0.44907 a 0.26460982,0.26460982 0 0 0 0.168981,-0.0532 c 0.486185,-0.15264 0.996476,-0.31309 1.429888,-0.44907 a 0.26460982,0.26460982 0 0 0 -0.08785,-0.51935 0.26460982,0.26460982 0 0 0 -0.07028,0.0134 c -0.382884,0.12013 -0.836335,0.26295 -1.26297,0.39688 -0.31922,-1.01591 -0.637805,-2.03119 -0.956532,-3.04684 0.638979,-0.2515 1.068898,-0.64241 1.309481,-1.1126 l -0.385506,-0.4408 c -0.166121,0.50107 -0.536919,0.8921 -1.331701,1.13895 -0.957858,0.29749 -1.505633,0.16992 -1.91203,-0.17001 -0.406395,-0.33992 -0.683064,-0.95428 -0.9100214,-1.68724 l -0.328663,-1.06195 c 1.2818084,-0.59828 2.5634164,-1.19589 3.8447274,-1.79369 l 0.501261,1.58027 c 0.146007,0.46156 0.232378,0.90493 0.236162,1.30276 l 0.483174,0.55242 c 0.12029,-0.6298 0.0042,-1.32032 -0.214974,-2.01331 l -0.88315,-2.7833 a 0.26460982,0.26460982 0 0 0 -0.261483,-0.18345 0.26460982,0.26460982 0 0 0 -0.07028,0.0114 l -4.5020534,1.42575 a 0.26460982,0.26460982 0 0 0 -0.0925,0.0522 0.26460982,0.26460982 0 0 0 -0.134358,-0.0987 L 3.8974899,284.932 a 0.26460982,0.26460982 0 0 0 -0.078031,-0.0129 z m 0.1694974,0.59686 4.0002725,1.26762 -0.311608,1.00614 c -1.2718863,-0.59384 -2.5436484,-1.18667 -3.8152703,-1.77973 a 0.26460982,0.26460982 0 0 0 -0.026353,-0.0114 z m 9.0469939,0.0465 0.14056,0.44235 a 0.26460982,0.26460982 0 0 0 -0.01138,0.005 c -1.276371,0.59551 -2.55288,1.19102 -3.8297404,1.78697 l -0.299207,-0.96686 z m -7.6372595,2.38694 c -0.063055,-5.3e-4 -0.1214067,0.009 -0.1731169,0.0212 -0.1178507,0.0281 -0.1384803,0.0555 -0.2015384,0.092 -0.06236,-0.036 -0.082735,-0.0623 -0.1989535,-0.0899 -0.1025128,-0.0243 -0.2319231,-0.0373 -0.3689694,0.0176 -0.1370462,0.0549 -0.2550689,0.18511 -0.3126422,0.3421 -0.069781,0.19028 -0.02781,0.38081 0.042892,0.52917 0.070699,0.14837 0.1711325,0.27265 0.2713011,0.37879 0.2003372,0.21227 0.4159938,0.35966 0.4159938,0.35966 l 0.1488281,0.10336 0.1503786,-0.10336 c 0,0 0.2157862,-0.14394 0.4180628,-0.35553 0.101137,-0.1058 0.2032027,-0.23068 0.274918,-0.37931 0.07171,-0.14862 0.1153478,-0.34007 0.047027,-0.53123 -0.056782,-0.15886 -0.1759532,-0.29026 -0.3141927,-0.34572 -0.069122,-0.0277 -0.1369351,-0.0382 -0.1999879,-0.0387 z m 6.8791675,0 c -0.06306,-5.3e-4 -0.121923,0.009 -0.173633,0.0212 -0.117854,0.0281 -0.137965,0.0555 -0.201023,0.092 -0.06239,-0.036 -0.08159,-0.0624 -0.197403,-0.0899 -0.102513,-0.0243 -0.233992,-0.0373 -0.371038,0.0176 -0.137046,0.0549 -0.255069,0.18511 -0.312642,0.3421 -0.06978,0.19028 -0.02574,0.38081 0.04496,0.52917 0.0707,0.14837 0.169582,0.27265 0.269753,0.37879 0.200334,0.21227 0.415994,0.35966 0.415994,0.35966 l 0.148312,0.10336 0.150378,-0.10336 c 0,0 0.215787,-0.14394 0.418063,-0.35553 0.101137,-0.1058 0.203719,-0.23068 0.275434,-0.37931 0.07171,-0.14862 0.115348,-0.34007 0.04703,-0.53123 -0.05678,-0.15886 -0.176469,-0.29026 -0.314711,-0.34572 -0.06912,-0.0277 -0.136417,-0.0382 -0.199469,-0.0387 z m -6.8765852,0.52916 c -0.00421,-0.002 -0.00513,-0.0188 0.013441,0.0331 0.00701,0.0196 0.00876,0.0545 -0.025321,0.12506 -0.03406,0.0706 -0.1038198,0.15916 -0.1813851,0.2403 -0.0859,0.0899 -0.1179883,0.1066 -0.1839674,0.15813 -0.065421,-0.052 -0.096962,-0.0686 -0.1813851,-0.15813 -0.07692,-0.0815 -0.1442482,-0.17151 -0.1777656,-0.24185 -0.03352,-0.0703 -0.031803,-0.10378 -0.025321,-0.12144 0.01868,-0.0509 0.017674,-0.0327 0.013441,-0.031 -0.00421,0.002 0.014711,-0.005 0.05116,0.004 0.072898,0.0173 0.1658805,0.076 0.1658805,0.076 l 0.1539955,0.10955 0.1524449,-0.10955 c 0,0 0.096848,-0.0601 0.1720824,-0.078 0.037621,-0.009 0.05693,-0.004 0.05271,-0.006 z m 6.8786512,0 c -0.0042,-0.002 -0.0046,-0.0188 0.01394,0.0331 0.007,0.0196 0.0088,0.0545 -0.02532,0.12506 -0.03406,0.0706 -0.10227,0.15916 -0.179835,0.2403 -0.08613,0.0901 -0.119509,0.1066 -0.185518,0.15813 -0.06542,-0.052 -0.09748,-0.0686 -0.181901,-0.15813 -0.07692,-0.0815 -0.143732,-0.17151 -0.177249,-0.24185 -0.03352,-0.0703 -0.03231,-0.10378 -0.02585,-0.12144 0.01868,-0.0509 0.01818,-0.0327 0.01394,-0.031 -0.0042,0.002 0.01418,-0.005 0.05064,0.004 0.0729,0.0173 0.167949,0.076 0.167949,0.076 l 0.152445,0.10955 0.152445,-0.10955 c 0,0 0.09633,-0.0601 0.171567,-0.078 0.03762,-0.009 0.05693,-0.004 0.05271,-0.006 z" id="path1784" style="color:#000000;font-style:normal;font-variant:normal;font-weight:normal;font-stretch:normal;font-size:medium;line-height:normal;font-family:sans-serif;font-variant-ligatures:normal;font-variant-position:normal;font-variant-caps:normal;font-variant-numeric:normal;font-variant-alternates:normal;font-feature-settings:normal;text-indent:0;text-align:start;text-decoration:none;text-decoration-line:none;text-decoration-style:solid;text-decoration-color:#000000;letter-spacing:normal;word-spacing:normal;text-transform:none;writing-mode:lr-tb;direction:ltr;text-orientation:mixed;dominant-baseline:auto;baseline-shift:baseline;text-anchor:start;white-space:normal;shape-padding:0;clip-rule:nonzero;display:inline;overflow:visible;visibility:visible;opacity:1;isolation:auto;mix-blend-mode:normal;color-interpolation:sRGB;color-interpolation-filters:linearRGB;solid-color:#000000;solid-opacity:1;vector-effect:none;fill:#000000;fill-opacity:1;fill-rule:nonzero;stroke:none;stroke-width:0.5291667;stroke-linecap:round;stroke-linejoin:round;stroke-miterlimit:4;stroke-dasharray:none;stroke-dashoffset:0;stroke-opacity:1;paint-order:stroke fill markers;color-rendering:auto;image-rendering:auto;shape-rendering:auto;text-rendering:auto;enable-background:accumulate"/><path d="m 8.8444106,281.7854 c -0.0042,-0.002 -0.0066,-0.0188 0.01188,0.0331 0.007,0.0196 0.0088,0.0545 -0.02532,0.12506 -0.03406,0.0706 -0.102269,0.15916 -0.179832,0.2403 -0.08516,0.0891 -0.117581,0.10452 -0.183452,0.15606 -0.06535,-0.052 -0.09793,-0.0671 -0.181901,-0.15606 -0.07692,-0.0815 -0.144248,-0.17202 -0.177768,-0.24236 -0.03352,-0.0703 -0.0318,-0.10327 -0.02532,-0.12093 0.01868,-0.0509 0.01818,-0.0332 0.01394,-0.0315 -0.0042,0.002 0.01418,-0.005 0.05064,0.004 0.0729,0.0173 0.16588,0.0765 0.16588,0.0765 l 0.152445,0.10904 0.154514,-0.10904 c 0,0 0.09633,-0.0607 0.171567,-0.0786 0.03762,-0.009 0.05693,-0.004 0.05271,-0.006 z" id="path2295-7" style="color:#000000;font-style:normal;font-variant:normal;font-weight:normal;font-stretch:normal;font-size:medium;line-height:normal;font-family:sans-serif;font-variant-ligatures:normal;font-variant-position:normal;font-variant-caps:normal;font-variant-numeric:normal;font-variant-alternates:normal;font-feature-settings:normal;text-indent:0;text-align:start;text-decoration:none;text-decoration-line:none;text-decoration-style:solid;text-decoration-color:#000000;letter-spacing:normal;word-spacing:normal;text-transform:none;writing-mode:lr-tb;direction:ltr;text-orientation:mixed;dominant-baseline:auto;baseline-shift:baseline;text-anchor:start;white-space:normal;shape-padding:0;clip-rule:nonzero;display:inline;overflow:visible;visibility:visible;opacity:1;isolation:auto;mix-blend-mode:normal;color-interpolation:sRGB;color-interpolation-filters:linearRGB;solid-color:#000000;solid-opacity:1;vector-effect:none;fill:#f06292;fill-opacity:1;fill-rule:nonzero;stroke:none;stroke-width:0.5291667;stroke-linecap:round;stroke-linejoin:round;stroke-miterlimit:4;stroke-dasharray:none;stroke-dashoffset:0;stroke-opacity:1;paint-order:stroke fill markers;color-rendering:auto;image-rendering:auto;shape-rendering:auto;text-rendering:auto;enable-background:accumulate"/><path d="m 5.9303764,283.71707 c -0.0042,-0.002 -0.0046,-0.0188 0.013941,0.0331 0.007,0.0196 0.0066,0.0524 -0.02739,0.12299 -0.03406,0.0706 -0.1022692,0.16122 -0.179835,0.24236 -0.08545,0.0894 -0.117535,0.10454 -0.1834509,0.15607 -0.06538,-0.052 -0.09773,-0.0689 -0.1819011,-0.15814 -0.07692,-0.0815 -0.1442482,-0.17202 -0.1777661,-0.24236 -0.03352,-0.0703 -0.0318,-0.10119 -0.025321,-0.11885 0.01868,-0.0509 0.018179,-0.0353 0.013941,-0.0336 -0.0042,0.002 0.014179,-0.003 0.05064,0.006 0.0729,0.0173 0.165881,0.0765 0.165881,0.0765 l 0.1545112,0.10697 0.1524478,-0.10697 c 0,0 0.09633,-0.0606 0.171563,-0.0786 0.03762,-0.009 0.05693,-0.004 0.05271,-0.006 z" id="path2289-9" style="color:#000000;font-style:normal;font-variant:normal;font-weight:normal;font-stretch:normal;font-size:medium;line-height:normal;font-family:sans-serif;font-variant-ligatures:normal;font-variant-position:normal;font-variant-caps:normal;font-variant-numeric:normal;font-variant-alternates:normal;font-feature-settings:normal;text-indent:0;text-align:start;text-decoration:none;text-decoration-line:none;text-decoration-style:solid;text-decoration-color:#000000;letter-spacing:normal;word-spacing:normal;text-transform:none;writing-mode:lr-tb;direction:ltr;text-orientation:mixed;dominant-baseline:auto;baseline-shift:baseline;text-anchor:start;white-space:normal;shape-padding:0;clip-rule:nonzero;display:inline;overflow:visible;visibility:visible;opacity:1;isolation:auto;mix-blend-mode:normal;color-interpolation:sRGB;color-interpolation-filters:linearRGB;solid-color:#000000;solid-opacity:1;vector-effect:none;fill:#f06292;fill-opacity:1;fill-rule:nonzero;stroke:none;stroke-width:0.5291667;stroke-linecap:round;stroke-linejoin:round;stroke-miterlimit:4;stroke-dasharray:none;stroke-dashoffset:0;stroke-opacity:1;paint-order:stroke fill markers;color-rendering:auto;image-rendering:auto;shape-rendering:auto;text-rendering:auto;enable-background:accumulate"/><path d="m 11.750694,283.71707 c -0.0042,-0.002 -0.0046,-0.0188 0.01394,0.0331 0.007,0.0196 0.0083,0.0524 -0.02582,0.12299 -0.03406,0.0706 -0.101754,0.16122 -0.179319,0.24236 -0.08561,0.0896 -0.118028,0.1066 -0.183968,0.15813 -0.06553,-0.052 -0.09832,-0.07 -0.183452,-0.1602 -0.07692,-0.0815 -0.144248,-0.17202 -0.177764,-0.24236 -0.03352,-0.0703 -0.0318,-0.10119 -0.02532,-0.11885 0.01868,-0.0509 0.01818,-0.0353 0.01394,-0.0336 -0.0042,0.002 0.01418,-0.003 0.05064,0.006 0.0729,0.0173 0.167949,0.0765 0.167949,0.0765 l 0.152445,0.10697 0.151929,-0.10697 c 0,0 0.09685,-0.0606 0.172083,-0.0786 0.03762,-0.009 0.05693,-0.004 0.05271,-0.006 z" id="path2287-2" style="color:#000000;font-style:normal;font-variant:normal;font-weight:normal;font-stretch:normal;font-size:medium;line-height:normal;font-family:sans-serif;font-variant-ligatures:normal;font-variant-position:normal;font-variant-caps:normal;font-variant-numeric:normal;font-variant-alternates:normal;font-feature-settings:normal;text-indent:0;text-align:start;text-decoration:none;text-decoration-line:none;text-decoration-style:solid;text-decoration-color:#000000;letter-spacing:normal;word-spacing:normal;text-transform:none;writing-mode:lr-tb;direction:ltr;text-orientation:mixed;dominant-baseline:auto;baseline-shift:baseline;text-anchor:start;white-space:normal;shape-padding:0;clip-rule:nonzero;display:inline;overflow:visible;visibility:visible;opacity:1;isolation:auto;mix-blend-mode:normal;color-interpolation:sRGB;color-interpolation-filters:linearRGB;solid-color:#000000;solid-opacity:1;vector-effect:none;fill:#f06292;fill-opacity:1;fill-rule:nonzero;stroke:none;stroke-width:0.5291667;stroke-linecap:round;stroke-linejoin:round;stroke-miterlimit:4;stroke-dasharray:none;stroke-dashoffset:0;stroke-opacity:1;paint-order:stroke fill markers;color-rendering:auto;image-rendering:auto;shape-rendering:auto;text-rendering:auto;enable-background:accumulate"/><path d="m 8.8444106,284.43175 c -0.0042,-0.002 -0.0066,-0.0188 0.01188,0.0331 0.007,0.0196 0.0088,0.0523 -0.02532,0.12298 -0.03406,0.0706 -0.102269,0.16123 -0.179832,0.24237 -0.08516,0.0891 -0.117581,0.10453 -0.183452,0.15606 -0.06535,-0.052 -0.09793,-0.0671 -0.181901,-0.15606 -0.07692,-0.0815 -0.144248,-0.17204 -0.177768,-0.24237 -0.03352,-0.0703 -0.0318,-0.10326 -0.02532,-0.12092 0.01868,-0.0509 0.01818,-0.0348 0.01394,-0.0331 -0.0042,0.002 0.01418,-0.003 0.05064,0.006 0.0729,0.0173 0.16588,0.0765 0.16588,0.0765 l 0.152445,0.10749 0.154514,-0.10749 c 0,0 0.09633,-0.0601 0.171567,-0.078 0.03762,-0.009 0.05693,-0.004 0.05271,-0.006 z" id="path2283-0" style="color:#000000;font-style:normal;font-variant:normal;font-weight:normal;font-stretch:normal;font-size:medium;line-height:normal;font-family:sans-serif;font-variant-ligatures:normal;font-variant-position:normal;font-variant-caps:normal;font-variant-numeric:normal;font-variant-alternates:normal;font-feature-settings:normal;text-indent:0;text-align:start;text-decoration:none;text-decoration-line:none;text-decoration-style:solid;text-decoration-color:#000000;letter-spacing:normal;word-spacing:normal;text-transform:none;writing-mode:lr-tb;direction:ltr;text-orientation:mixed;dominant-baseline:auto;baseline-shift:baseline;text-anchor:start;white-space:normal;shape-padding:0;clip-rule:nonzero;display:inline;overflow:visible;visibility:visible;opacity:1;isolation:auto;mix-blend-mode:normal;color-interpolation:sRGB;color-interpolation-filters:linearRGB;solid-color:#000000;solid-opacity:1;vector-effect:none;fill:#f06292;fill-opacity:1;fill-rule:nonzero;stroke:none;stroke-width:0.5291667;stroke-linecap:round;stroke-linejoin:round;stroke-miterlimit:4;stroke-dasharray:none;stroke-dashoffset:0;stroke-opacity:1;paint-order:stroke fill markers;color-rendering:auto;image-rendering:auto;shape-rendering:auto;text-rendering:auto;enable-background:accumulate"/><path d="m 3.9888932,285.51592 4.0002724,1.26763 -0.311607,1.00614 c -1.2718874,-0.59384 -2.5436492,-1.18668 -3.8152714,-1.77974 a 0.26460982,0.26460982 0 0 0 -0.02635,-0.0114 z" id="path2279-9" style="color:#000000;font-style:normal;font-variant:normal;font-weight:normal;font-stretch:normal;font-size:medium;line-height:normal;font-family:sans-serif;font-variant-ligatures:normal;font-variant-position:normal;font-variant-caps:normal;font-variant-numeric:normal;font-variant-alternates:normal;font-feature-settings:normal;text-indent:0;text-align:start;text-decoration:none;text-decoration-line:none;text-decoration-style:solid;text-decoration-color:#000000;letter-spacing:normal;word-spacing:normal;text-transform:none;writing-mode:lr-tb;direction:ltr;text-orientation:mixed;dominant-baseline:auto;baseline-shift:baseline;text-anchor:start;white-space:normal;shape-padding:0;clip-rule:nonzero;display:inline;overflow:visible;visibility:visible;opacity:1;isolation:auto;mix-blend-mode:normal;color-interpolation:sRGB;color-interpolation-filters:linearRGB;solid-color:#000000;solid-opacity:1;vector-effect:none;fill:#ffffff;fill-opacity:1;fill-rule:nonzero;stroke:none;stroke-width:0.5291667;stroke-linecap:round;stroke-linejoin:round;stroke-miterlimit:4;stroke-dasharray:none;stroke-dashoffset:0;stroke-opacity:1;paint-order:stroke fill markers;color-rendering:auto;image-rendering:auto;shape-rendering:auto;text-rendering:auto;enable-background:accumulate"/><path d="m 13.035886,285.56243 0.14056,0.44235 a 0.26460982,0.26460982 0 0 0 -0.01138,0.005 c -1.276371,0.59551 -2.55288,1.19102 -3.8297404,1.78697 l -0.299206,-0.96686 z" id="path2277-6" style="color:#000000;font-style:normal;font-variant:normal;font-weight:normal;font-stretch:normal;font-size:medium;line-height:normal;font-family:sans-serif;font-variant-ligatures:normal;font-variant-position:normal;font-variant-caps:normal;font-variant-numeric:normal;font-variant-alternates:normal;font-feature-settings:normal;text-indent:0;text-align:start;text-decoration:none;text-decoration-line:none;text-decoration-style:solid;text-decoration-color:#000000;letter-spacing:normal;word-spacing:normal;text-transform:none;writing-mode:lr-tb;direction:ltr;text-orientation:mixed;dominant-baseline:auto;baseline-shift:baseline;text-anchor:start;white-space:normal;shape-padding:0;clip-rule:nonzero;display:inline;overflow:visible;visibility:visible;opacity:1;isolation:auto;mix-blend-mode:normal;color-interpolation:sRGB;color-interpolation-filters:linearRGB;solid-color:#000000;solid-opacity:1;vector-effect:none;fill:#ffffff;fill-opacity:1;fill-rule:nonzero;stroke:none;stroke-width:0.5291667;stroke-linecap:round;stroke-linejoin:round;stroke-miterlimit:4;stroke-dasharray:none;stroke-dashoffset:0;stroke-opacity:1;paint-order:stroke fill markers;color-rendering:auto;image-rendering:auto;shape-rendering:auto;text-rendering:auto;enable-background:accumulate"/><path d="m 5.4012102,288.47853 c -0.0042,-0.002 -0.0051,-0.0188 0.013441,0.0331 0.007,0.0196 0.0088,0.0545 -0.025321,0.12505 -0.03406,0.0706 -0.1038199,0.15916 -0.1813849,0.2403 -0.0859,0.0899 -0.1179891,0.1066 -0.183968,0.15813 -0.06542,-0.052 -0.09696,-0.0686 -0.1813851,-0.15813 -0.07692,-0.0815 -0.1442479,-0.17151 -0.177765,-0.24185 -0.03352,-0.0703 -0.0318,-0.10378 -0.025321,-0.12144 0.01868,-0.0509 0.017669,-0.0327 0.013441,-0.031 -0.0042,0.002 0.014711,-0.005 0.05116,0.004 0.0729,0.0173 0.16588,0.076 0.16588,0.076 l 0.153996,0.10955 0.1524449,-0.10955 c 0,0 0.09685,-0.0601 0.1720821,-0.078 0.03762,-0.009 0.05693,-0.004 0.05271,-0.006 z" id="path2267-4" style="color:#000000;font-style:normal;font-variant:normal;font-weight:normal;font-stretch:normal;font-size:medium;line-height:normal;font-family:sans-serif;font-variant-ligatures:normal;font-variant-position:normal;font-variant-caps:normal;font-variant-numeric:normal;font-variant-alternates:normal;font-feature-settings:normal;text-indent:0;text-align:start;text-decoration:none;text-decoration-line:none;text-decoration-style:solid;text-decoration-color:#000000;letter-spacing:normal;word-spacing:normal;text-transform:none;writing-mode:lr-tb;direction:ltr;text-orientation:mixed;dominant-baseline:auto;baseline-shift:baseline;text-anchor:start;white-space:normal;shape-padding:0;clip-rule:nonzero;display:inline;overflow:visible;visibility:visible;opacity:1;isolation:auto;mix-blend-mode:normal;color-interpolation:sRGB;color-interpolation-filters:linearRGB;solid-color:#000000;solid-opacity:1;vector-effect:none;fill:#f06292;fill-opacity:1;fill-rule:nonzero;stroke:none;stroke-width:0.5291667;stroke-linecap:round;stroke-linejoin:round;stroke-miterlimit:4;stroke-dasharray:none;stroke-dashoffset:0;stroke-opacity:1;paint-order:stroke fill markers;color-rendering:auto;image-rendering:auto;shape-rendering:auto;text-rendering:auto;enable-background:accumulate"/><path d="m 12.27986,288.47853 c -0.0042,-0.002 -0.0046,-0.0188 0.01394,0.0331 0.007,0.0196 0.0088,0.0545 -0.02532,0.12505 -0.03406,0.0706 -0.10227,0.15916 -0.179835,0.2403 -0.08613,0.0901 -0.11951,0.1066 -0.185517,0.15813 -0.06542,-0.052 -0.09748,-0.0686 -0.181902,-0.15813 -0.07692,-0.0815 -0.143733,-0.17151 -0.177249,-0.24185 -0.03352,-0.0703 -0.03232,-0.10378 -0.02585,-0.12144 0.01868,-0.0509 0.01818,-0.0327 0.01394,-0.031 -0.0042,0.002 0.01418,-0.005 0.05064,0.004 0.0729,0.0173 0.16795,0.076 0.16795,0.076 l 0.152445,0.10955 0.152445,-0.10955 c 0,0 0.09633,-0.0601 0.171566,-0.078 0.03762,-0.009 0.05693,-0.004 0.05271,-0.006 z" id="rect2099-9" style="color:#000000;font-style:normal;font-variant:normal;font-weight:normal;font-stretch:normal;font-size:medium;line-height:normal;font-family:sans-serif;font-variant-ligatures:normal;font-variant-position:normal;font-variant-caps:normal;font-variant-numeric:normal;font-variant-alternates:normal;font-feature-settings:normal;text-indent:0;text-align:start;text-decoration:none;text-decoration-line:none;text-decoration-style:solid;text-decoration-color:#000000;letter-spacing:normal;word-spacing:normal;text-transform:none;writing-mode:lr-tb;direction:ltr;text-orientation:mixed;dominant-baseline:auto;baseline-shift:baseline;text-anchor:start;white-space:normal;shape-padding:0;clip-rule:nonzero;display:inline;overflow:visible;visibility:visible;opacity:1;isolation:auto;mix-blend-mode:normal;color-interpolation:sRGB;color-interpolation-filters:linearRGB;solid-color:#000000;solid-opacity:1;vector-effect:none;fill:#f06292;fill-opacity:1;fill-rule:nonzero;stroke:none;stroke-width:0.5291667;stroke-linecap:round;stroke-linejoin:round;stroke-miterlimit:4;stroke-dasharray:none;stroke-dashoffset:0;stroke-opacity:1;paint-order:stroke fill markers;color-rendering:auto;image-rendering:auto;shape-rendering:auto;text-rendering:auto;enable-background:accumulate"/></g></svg>